# Blender 4.2.1 LTS
# www.blender.org
mtllib Cross.mtl
o Cube
v 5.000000 1.000000 -1.000000
v 5.000000 -1.000000 -1.000000
v 5.000000 1.000000 1.000000
v 5.000000 -1.000000 1.000000
v -5.000000 1.000000 -1.000000
v -5.000000 -1.000000 -1.000000
v -5.000000 1.000000 1.000000
v -5.000000 -1.000000 1.000000
v 3.000000 -1.000000 -1.000000
v 1.000000 -1.000000 -1.000000
v -1.000000 -1.000000 -1.000000
v -3.000000 -1.000000 -1.000000
v 3.000000 1.000000 1.000000
v 1.000000 1.000000 1.000000
v -1.000000 1.000000 1.000000
v -3.000000 1.000000 1.000000
v -3.000000 -1.000000 1.000000
v -1.000000 -1.000000 1.000000
v 1.000000 -1.000000 1.000000
v 3.000000 -1.000000 1.000000
v -3.000000 1.000000 -1.000000
v -1.000000 1.000000 -1.000000
v 1.000000 1.000000 -1.000000
v 3.000000 1.000000 -1.000000
v 1.000000 5.008589 1.000000
v -1.000000 5.008589 1.000000
v -1.000000 5.008589 -1.000000
v 1.000000 5.008589 -1.000000
v 1.000000 -13.019738 -1.000000
v -1.000000 -13.019738 -1.000000
v -1.000000 -13.019738 1.000000
v 1.000000 -13.019738 1.000000
vn -0.0000 1.0000 -0.0000
vn -0.0000 -0.0000 1.0000
vn -1.0000 -0.0000 -0.0000
vn -0.0000 -1.0000 -0.0000
vn 1.0000 -0.0000 -0.0000
vn -0.0000 -0.0000 -1.0000
vt 0.825000 0.500000
vt 0.875000 0.500000
vt 0.875000 0.750000
vt 0.825000 0.750000
vt 0.375000 0.950000
vt 0.625000 0.950000
vt 0.625000 1.000000
vt 0.375000 1.000000
vt 0.375000 0.000000
vt 0.625000 0.000000
vt 0.625000 0.250000
vt 0.375000 0.250000
vt 0.325000 0.500000
vt 0.375000 0.500000
vt 0.375000 0.750000
vt 0.325000 0.750000
vt 0.625000 0.500000
vt 0.625000 0.750000
vt 0.375000 0.450000
vt 0.625000 0.450000
vt 0.625000 0.300000
vt 0.375000 0.300000
vt 0.625000 0.350000
vt 0.375000 0.350000
vt 0.625000 0.400000
vt 0.375000 0.400000
vt 0.125000 0.500000
vt 0.175000 0.500000
vt 0.175000 0.750000
vt 0.125000 0.750000
vt 0.225000 0.500000
vt 0.225000 0.750000
vt 0.375000 0.850000
vt 0.375000 0.900000
vt 0.275000 0.500000
vt 0.275000 0.750000
vt 0.625000 0.800000
vt 0.375000 0.800000
vt 0.625000 0.850000
vt 0.625000 0.900000
vt 0.675000 0.500000
vt 0.675000 0.750000
vt 0.725000 0.500000
vt 0.725000 0.750000
vt 0.775000 0.500000
vt 0.775000 0.750000
s 0
usemtl Material
f 21/1/1 5/2/1 7/3/1 16/4/1
f 17/5/2 16/6/2 7/7/2 8/8/2
f 8/9/3 7/10/3 5/11/3 6/12/3
f 9/13/4 2/14/4 4/15/4 20/16/4
f 2/14/5 1/17/5 3/18/5 4/15/5
f 9/19/6 24/20/6 1/17/6 2/14/6
f 6/12/6 5/11/6 21/21/6 12/22/6
f 12/22/6 21/21/6 22/23/6 11/24/6
f 11/24/6 22/23/6 23/25/6 10/26/6
f 10/26/6 23/25/6 24/20/6 9/19/6
f 6/27/4 12/28/4 17/29/4 8/30/4
f 12/28/4 11/31/4 18/32/4 17/29/4
f 19/33/2 18/34/2 31/34/2 32/33/2
f 10/35/4 9/13/4 20/16/4 19/36/4
f 4/15/2 3/18/2 13/37/2 20/38/2
f 20/38/2 13/37/2 14/39/2 19/33/2
f 19/33/2 14/39/2 15/40/2 18/34/2
f 18/34/2 15/40/2 16/6/2 17/5/2
f 1/17/1 24/41/1 13/42/1 3/18/1
f 24/41/1 23/43/1 14/44/1 13/42/1
f 22/45/3 15/46/3 26/46/3 27/45/3
f 22/45/1 21/1/1 16/4/1 15/46/1
f 28/43/1 27/45/1 26/46/1 25/44/1
f 15/40/2 14/39/2 25/39/2 26/40/2
f 14/44/5 23/43/5 28/43/5 25/44/5
f 23/25/6 22/23/6 27/23/6 28/25/6
f 30/31/4 29/35/4 32/36/4 31/32/4
f 18/32/3 11/31/3 30/31/3 31/32/3
f 11/24/6 10/26/6 29/26/6 30/24/6
f 10/35/5 19/36/5 32/36/5 29/35/5
